<svg xmlns="http://www.w3.org/2000/svg" width="1200" height="630" viewBox="0 0 1200 630" role="img" aria-label="MineAnvil Open Graph image placeholder">
  <defs>
    <linearGradient id="bg" x1="0" y1="0" x2="1" y2="1">
      <stop offset="0" stop-color="#0b1220"/>
      <stop offset="1" stop-color="#0b3a67"/>
    </linearGradient>
    <linearGradient id="accent" x1="0" y1="0" x2="0" y2="1">
      <stop offset="0" stop-color="#89b4ff"/>
      <stop offset="1" stop-color="#0f5ea6"/>
    </linearGradient>
  </defs>

  <rect width="1200" height="630" fill="url(#bg)"/>
  <circle cx="180" cy="120" r="260" fill="rgba(137,180,255,0.12)"/>
  <circle cx="1040" cy="80" r="300" fill="rgba(15,94,166,0.14)"/>
  <circle cx="960" cy="580" r="320" fill="rgba(255,255,255,0.06)"/>

  <g transform="translate(90,120)">
    <rect x="0" y="0" width="140" height="140" rx="34" fill="url(#accent)"/>
    <path d="M34 50h30l11 20 11-20h30v40h-18V67l-15 23H67L52 67v23H34V50z" fill="#ffffff" opacity="0.95"/>
  </g>

  <g font-family="system-ui, -apple-system, Segoe UI, Roboto, Helvetica, Arial" fill="#ffffff">
    <text x="260" y="180" font-size="56" font-weight="800" letter-spacing="-1">MineAnvil</text>
    <text x="260" y="245" font-size="28" fill="rgba(255,255,255,0.86)">
      Safe, predictable Minecraft Java for families, clubs, and schools
    </text>
    <text x="260" y="308" font-size="22" fill="rgba(255,255,255,0.74)">
      Orchestration layer • deterministic installs • plain-English diagnostics
    </text>
  </g>

  <g fill="rgba(255,255,255,0.2)">
    <rect x="90" y="430" width="1020" height="2" rx="1"/>
  </g>

  <g font-family="system-ui, -apple-system, Segoe UI, Roboto, Helvetica, Arial" fill="rgba(255,255,255,0.7)" font-size="18">
    <text x="90" y="500">Placeholder image — replace before launch</text>
  </g>
</svg>


